<?xml version="1.0" encoding="utf-8"?>
<!-- Generator: Adobe Illustrator 22.0.0, SVG Export Plug-In . SVG Version: 6.00 Build 0)  -->
<svg version="1.1" xmlns="http://www.w3.org/2000/svg" xmlns:xlink="http://www.w3.org/1999/xlink" x="0px" y="0px"
	 viewBox="0 0 500 278" style="enable-background:new 0 0 500 278;" xml:space="preserve">
<style type="text/css">
	.st0{fill:none;stroke:#101111;stroke-miterlimit:10;}
	.st1{fill:#101111;}
</style>
<g id="PATTERN">
</g>
<g id="DESIGNED_BY_FREEPIK">
	<path class="st0" d="M57.3,226.7C48.7,206.8,98,90.8,98,90.8"/>
	<path class="st0" d="M91.8,45.8c13.3,38.4-6.6,166.7,16.1,225.9"/>
	<path class="st0" d="M46.4,158.7c39.2-18.4,73.3-35.8,90.5-50c0,0,34.6-28.4,2.8-30.3c-31.7-1.9-14.2,19.7-7.1,26.5
		c7.1,6.8,38.8,25.1,22.7,44.5s-22.7,6.6-22.3-3.8s46.9-43.4,54-35.1s0,48.1,0,48.1"/>
	<path class="st1" d="M195.6,79.4c-5.5,0-5.5,8.5,0,8.5C201.1,87.9,201.1,79.4,195.6,79.4z"/>
	<path class="st1" d="M374.4,66.1c-5.5,0-5.5,8.5,0,8.5C379.9,74.6,379.9,66.1,374.4,66.1z"/>
	<path class="st0" d="M254.8,25.4c0,0,0.5-20.4-8.1-17.1s-40.3,231.6-42.2,234c-1.9,2.4-4.9-2.4-4.9-2.4"/>
	<path class="st0" d="M246.4,135.7c0,0-45.8,9.9-48.3,23.1"/>
	<path class="st0" d="M265.5,186.5c0,0,10.3-69.6,7.1-86.3"/>
	<path class="st0" d="M271.6,17.7c13.9,34.8,11,147,41.9,204.3"/>
	<path class="st0" d="M254.8,143.3c8.6-12.6,76.8-46.4,76.8-46.4s-5.7,83.1,14.6,81.4"/>
	<path class="st0" d="M372.8,87.9c5.7,13.6-3.2,86.5,5.7,90.4"/>
	<g>
		<path class="st1" d="M29.3,233c3.1-3.6,6.9-6.5,10.8-9.1c3.9-2.6,8.1-4.7,12.4-6.7c8.5-4,17.3-7.1,26.3-9.9
			c17.9-5.5,36.2-9.6,54.5-13c36.8-6.8,73.9-11.3,111.1-14.6c37.2-3.3,74.6-5.5,111.9-6.7c37.4-1.2,74.7-1.5,112.1-0.8
			c-37.4-0.7-74.7-0.3-112.1,1c-37.3,1.3-74.7,3.5-111.9,6.9c-37.2,3.5-74.3,8-111,14.9c-18.3,3.5-36.6,7.6-54.4,13.1
			c-8.9,2.8-17.7,5.9-26.1,9.9c-4.2,2-8.3,4.2-12.2,6.7c-3.9,2.5-7.6,5.4-10.6,8.9L29.3,233z"/>
	</g>
	<path class="st1" d="M475.9,169c-3.7,0-3.7,5.7,0,5.7C479.5,174.7,479.5,169,475.9,169z"/>
	<path class="st1" d="M484.4,169.9c-2.5,0-2.5,3.9,0,3.9C487,173.8,487,169.9,484.4,169.9z"/>
</g>
</svg>
