<?xml version="1.0" encoding="utf-8"?>
<!-- Generator: Adobe Illustrator 22.0.0, SVG Export Plug-In . SVG Version: 6.00 Build 0)  -->
<svg version="1.1" xmlns="http://www.w3.org/2000/svg" xmlns:xlink="http://www.w3.org/1999/xlink" x="0px" y="0px"
	 viewBox="0 0 172.7 100.7" style="enable-background:new 0 0 172.7 100.7;" xml:space="preserve">
<style type="text/css">
	.st0{fill:none;stroke:#101111;stroke-miterlimit:10;}
	.st1{fill:#101111;}
</style>
<g id="PATTERN">
</g>
<g id="DESIGNED_BY_FREEPIK">
	<path class="st0" d="M17.8,80.3c-2.9-6.8,14-46.6,14-46.6"/>
	<path class="st0" d="M29.7,18.2c4.5,13.2-2.3,57.2,5.5,77.5"/>
	<path class="st0" d="M14.1,57c13.4-6.3,25.1-12.3,31-17.1c0,0,11.9-9.7,1-10.4c-10.9-0.6-4.9,6.8-2.4,9.1
		c2.4,2.3,13.3,8.6,7.8,15.3s-7.8,2.3-7.6-1.3c0.2-3.6,16.1-14.9,18.5-12c2.4,2.9,0,16.5,0,16.5"/>
	<path class="st1" d="M65.2,29.8c-1.9,0-1.9,2.9,0,2.9C67.1,32.7,67.1,29.8,65.2,29.8z"/>
	<path class="st1" d="M126.6,25.2c-1.9,0-1.9,2.9,0,2.9C128.5,28.1,128.5,25.2,126.6,25.2z"/>
	<path class="st0" d="M85.6,11.3c0,0,0.2-7-2.8-5.8S69,84.9,68.3,85.7c-0.6,0.8-1.7-0.8-1.7-0.8"/>
	<path class="st0" d="M82.7,49.1c0,0-15.7,3.4-16.6,7.9"/>
	<path class="st0" d="M89.3,66.5c0,0,3.5-23.9,2.4-29.6"/>
	<path class="st0" d="M91.3,8.6c4.8,11.9,3.8,50.4,14.4,70.1"/>
	<path class="st0" d="M85.6,51.7c3-4.3,26.4-15.9,26.4-15.9s-1.9,28.5,5,27.9"/>
	<path class="st0" d="M126.1,32.7c1.9,4.7-1.1,29.7,1.9,31"/>
	<g>
		<path class="st1" d="M8,82.3c2.3-2.5,5.2-4.1,8.1-5.5c2.9-1.4,6-2.4,9.1-3.4c6.2-1.9,12.4-3.3,18.8-4.4C56.5,66.6,69.2,65.2,82,64
			c25.6-2.2,51.2-2.9,76.9-2.4c-25.6-0.4-51.3,0.5-76.8,2.9c-12.8,1.2-25.5,2.8-38.1,5.2c-6.3,1.2-12.5,2.6-18.6,4.5
			c-3,1-6.1,2-8.9,3.4c-2.8,1.4-5.7,3-7.7,5.3L8,82.3z"/>
	</g>
	<path class="st1" d="M161.4,60.5c-1.3,0-1.3,1.9,0,1.9C162.7,62.5,162.7,60.5,161.4,60.5z"/>
	<path class="st1" d="M164.4,60.8c-0.9,0-0.9,1.3,0,1.3C165.2,62.2,165.2,60.8,164.4,60.8z"/>
</g>
</svg>
